<?xml version="1.0" standalone="no"?>
<!DOCTYPE svg PUBLIC "-//W3C//DTD SVG 20010904//EN"
 "http://www.w3.org/TR/2001/REC-SVG-20010904/DTD/svg10.dtd">
<svg version="1.0" xmlns="http://www.w3.org/2000/svg"
 width="700.000000pt" height="700.000000pt" viewBox="0 0 700.000000 700.000000"
 preserveAspectRatio="xMidYMid meet">
<metadata>
Created by potrace 1.11, written by Peter Selinger 2001-2013
</metadata>
<g transform="translate(0.000000,700.000000) scale(0.100000,-0.100000)"
fill="#000000" stroke="none">
<path d="M3409 6987 c0 -7 -2 -45 -4 -85 -3 -82 -14 -212 -21 -257 -15 -102
-56 -279 -73 -320 -5 -11 -19 -45 -31 -75 -124 -310 -394 -536 -756 -635 -32
-9 -66 -18 -74 -20 -8 -2 -76 -20 -150 -39 -296 -76 -394 -130 -429 -237 -13
-40 -16 -110 -6 -149 3 -14 8 -36 11 -50 14 -70 120 -283 212 -430 23 -35 40
-65 39 -66 -1 -1 -36 -5 -77 -8 -260 -22 -466 -113 -632 -279 -171 -170 -260
-353 -305 -627 -6 -36 -5 -251 1 -280 3 -13 8 -42 12 -64 23 -158 125 -369
246 -509 28 -32 44 -57 36 -58 -7 0 -20 -2 -28 -3 -8 -2 -40 -6 -70 -10 -98
-11 -117 -14 -220 -40 -274 -70 -493 -186 -672 -357 -69 -67 -178 -191 -178
-203 0 -3 -13 -25 -29 -49 -94 -139 -176 -370 -200 -562 -9 -79 -7 -292 4
-375 38 -281 184 -576 384 -777 228 -228 487 -351 860 -408 69 -11 506 -14
2251 -13 2038 0 2172 1 2280 18 201 31 307 63 468 142 390 190 649 551 727
1013 11 66 13 294 4 380 -40 355 -222 691 -494 911 -212 171 -503 290 -781
320 -50 5 -87 10 -103 13 -2 1 22 28 52 61 116 125 198 262 241 405 22 72 29
102 42 185 5 34 5 208 0 245 -4 28 -7 47 -21 115 -13 65 -50 164 -90 243 -169
331 -474 532 -855 563 -41 4 -77 8 -78 9 -2 2 8 23 21 47 67 115 99 233 103
383 5 194 -33 347 -134 545 -188 367 -521 725 -1012 1087 -191 141 -470 318
-471 300z"/>
</g>
</svg>
